<?xml version="1.0" encoding="UTF-8"?>
<svg xmlns="http://www.w3.org/2000/svg" viewBox="0 0 1095 1095" width="1095" height="1095">
<path d="M0.25 0.25C365.08 0.25 729.92 0.25 1094.75 0.25C1094.75 365.08 1094.75 729.92 1094.75 1094.75C729.92 1094.75 365.08 1094.75 0.25 1094.75C0.25 729.92 0.25 365.08 0.25 0.25ZM464.02 664.07C460.21 661.11 457.11 657.22 453.44 654.05C448.6 649.89 443.3 646.01 437.92 642.58C411.81 625.9 380.18 619.16 349.5 623.02C261.48 634.12 209.04 731.2 247.39 811.15C271.96 862.36 327.96 893.45 384.5 885.89C443 878.07 489.86 830.58 498.12 772.52C499.57 762.3 500.63 748.12 498.31 738C505.05 738.09 511.76 738.46 518.5 738.71C521.23 738.81 524.67 738.27 527.25 739.25C529.21 739.99 531.08 742.44 532.75 743.73C537.28 747.27 541.86 750.69 546.66 753.87C564.75 765.82 586.55 773.74 608.49 770.89C642.33 766.48 668.1 741.42 693.8 721.32C704.41 713.01 714.99 704.38 727.74 699.5C724.62 696.05 718.23 694.54 713.92 692.55C703.86 687.92 693.86 683.16 683.67 678.84C664.82 670.85 645.07 663.05 624.5 661.19C580.48 657.21 544.79 679.61 520.94 715.5C523.58 717.35 526.27 716.72 529.45 717.19C538.03 718.43 546.8 718.98 555.5 719.13C576.56 719.49 597.61 718.68 618.42 715.71C628.09 714.33 637.79 712.61 647.32 710.71C651.85 709.81 656.51 707.98 661.1 708.5C611.78 727.3 549.67 734.67 497.16 730.03C493.84 709.02 484.42 693.79 473.87 676.02C479.04 671.99 486.31 669.59 492.28 666.78C503.36 661.57 514.35 656.17 525.39 650.89C530.27 648.55 544.14 640.67 548.54 640.09C553.52 639.44 559.53 641.28 564.51 641.8C577.05 643.11 589.87 643.96 602.5 644.06C650.75 644.47 699.71 638.04 742.31 613.81C843.64 556.19 861.12 429.94 896.31 329.76C901.68 314.47 907.92 299.33 915.5 284.99C919.38 277.62 924.35 270.83 928.2 263.5C920.67 263.22 905.52 267.3 897.44 268.82C875.55 272.95 853.46 276.39 831.49 279.95C741.36 294.55 636.14 318.22 574.62 392.14C562.11 407.17 551.17 423.31 542.27 440.76C529.75 465.27 521.41 491.61 515.84 518.44C511.81 537.89 508.88 557.64 507.8 577.5C507.38 585.24 505.87 593.64 507.5 601.21C538.29 587.27 567.89 569.07 596.12 550.6C672.29 500.76 740.73 439.96 802.5 373.15C801.14 379.03 788.82 393.41 784.55 399.09C769 419.73 752.22 439.29 735.12 458.65C674.44 527.36 601.5 585.78 524.29 634.79C519.7 637.7 514.49 639.73 509.61 642.11C494.51 649.47 478.7 655.9 464.02 664.07Z" fill="#ffffff" fill-rule="evenodd" stroke="#ffffff" opacity="0" stroke-width="0.25" stroke-linejoin="round"/>
<path d="M473.87 676.02C470.59 672.03 467.31 668.05 464.02 664.07C478.7 655.9 494.51 649.47 509.61 642.11C514.49 639.73 519.7 637.7 524.29 634.79C601.5 585.78 674.44 527.36 735.12 458.65C752.22 439.29 769 419.73 784.55 399.09C788.82 393.41 801.14 379.03 802.5 373.15C740.73 439.96 672.29 500.76 596.12 550.6C567.89 569.07 538.29 587.27 507.5 601.21C505.87 593.64 507.38 585.24 507.8 577.5C508.88 557.64 511.81 537.89 515.84 518.44C521.41 491.61 529.75 465.27 542.27 440.76C551.17 423.31 562.11 407.17 574.62 392.14C636.14 318.22 741.36 294.55 831.49 279.95C853.46 276.39 875.55 272.95 897.44 268.82C905.52 267.3 920.67 263.22 928.2 263.5C924.35 270.83 919.38 277.62 915.5 284.99C907.92 299.33 901.68 314.47 896.31 329.76C861.12 429.94 843.64 556.19 742.31 613.81C699.71 638.04 650.75 644.47 602.5 644.06C589.87 643.96 577.05 643.11 564.51 641.8C559.53 641.28 553.52 639.44 548.54 640.09C544.14 640.67 530.27 648.55 525.39 650.89C514.35 656.17 503.36 661.57 492.28 666.78C486.31 669.59 479.04 671.99 473.87 676.02ZM498.31 738C497.92 735.34 497.54 732.68 497.16 730.03C549.67 734.67 611.78 727.3 661.1 708.5C656.51 707.98 651.85 709.81 647.32 710.71C637.79 712.61 628.09 714.33 618.42 715.71C597.61 718.68 576.56 719.49 555.5 719.13C546.8 718.98 538.03 718.43 529.45 717.19C526.27 716.72 523.58 717.35 520.94 715.5C544.79 679.61 580.48 657.21 624.5 661.19C645.07 663.05 664.82 670.85 683.67 678.84C693.86 683.16 703.86 687.92 713.92 692.55C718.23 694.54 724.62 696.05 727.74 699.5C714.99 704.38 704.41 713.01 693.8 721.32C668.1 741.42 642.33 766.48 608.49 770.89C586.55 773.74 564.75 765.82 546.66 753.87C541.86 750.69 537.28 747.27 532.75 743.73C531.08 742.44 529.21 739.99 527.25 739.25C524.67 738.27 521.23 738.81 518.5 738.71C511.76 738.46 505.05 738.09 498.31 738Z" fill="#97c242" fill-rule="evenodd" stroke="#97c242" stroke-width="0.25" stroke-linejoin="round"/>
<path d="M464.02 664.07C467.31 668.05 470.59 672.03 473.87 676.02C484.42 693.79 493.84 709.02 497.16 730.03C497.54 732.68 497.92 735.34 498.31 738C500.63 748.12 499.57 762.3 498.12 772.52C489.86 830.58 443 878.07 384.5 885.89C327.96 893.45 271.96 862.36 247.39 811.15C209.04 731.2 261.48 634.12 349.5 623.02C380.18 619.16 411.81 625.9 437.92 642.58C443.3 646.01 448.6 649.89 453.44 654.05C457.11 657.22 460.21 661.11 464.02 664.07Z" fill="#ffffff" fill-rule="evenodd" stroke="#ffffff" stroke-width="0.25" stroke-linejoin="round"/>
</svg>