<svg version="1.1" id="Layer_1" xmlns="http://www.w3.org/2000/svg" xmlns:xlink="http://www.w3.org/1999/xlink" x="0px" y="0px" width="2000" viewBox="0 0 1024 1024" enable-background="new 0 0 1024 1024" xml:space="preserve" height="2000">
<path fill="#ffffff" opacity="1.000000" stroke="none" d="
M832.812561,85.676987 
	C858.829346,76.661621 884.955688,69.208984 910.370178,59.645691 
	C923.498657,54.705559 936.164124,48.797565 947.949829,41.115219 
	C949.203552,40.297974 950.514954,39.550587 951.860840,38.896862 
	C955.194397,37.277664 958.506531,36.464375 961.404419,39.756989 
	C964.537964,43.317368 965.023438,48.090740 962.424744,51.654385 
	C958.661865,56.814430 953.770569,60.860184 948.919556,64.937889 
	C929.853638,80.964233 914.925720,100.565506 900.956726,120.936447 
	C882.241150,148.229446 870.213989,178.780289 858.246948,209.368271 
	C844.453796,244.623825 836.784912,281.377625 831.667358,318.681335 
	C829.341919,335.632355 828.796509,352.823608 827.302612,369.893524 
	C824.081055,406.703735 821.173706,443.531158 807.466614,478.486023 
	C794.698059,511.047424 774.069092,537.856262 748.375916,561.024536 
	C713.604309,592.379150 671.984070,609.722046 626.699036,618.875916 
	C607.106750,622.836304 587.052917,623.865540 567.090576,624.076599 
	C554.774109,624.206787 542.880066,625.523621 531.323486,629.715881 
	C512.607178,636.505310 492.956085,637.633240 473.397339,639.325806 
	C466.124695,639.955139 458.849701,640.557129 450.767426,641.239868 
	C453.314667,646.582397 455.673187,651.231140 457.779480,655.991455 
	C491.004822,731.083008 444.373993,816.721313 363.373199,829.415710 
	C296.170319,839.947693 232.713593,794.232788 221.617188,727.293213 
	C210.373383,659.464600 255.319077,595.269897 322.760620,583.983582 
	C363.596283,577.149597 399.571686,588.372192 430.010895,616.593567 
	C433.037476,619.399658 436.114502,620.576172 440.207764,620.807861 
	C454.028961,621.590210 467.820465,621.996948 481.557281,619.930237 
	C494.669281,617.957581 507.050201,613.441223 519.088928,608.134460 
	C572.569885,584.559692 610.538879,545.956543 631.911316,491.285583 
	C644.965576,457.892517 655.057678,423.571991 663.591125,388.821625 
	C675.893616,338.722809 696.234741,292.322845 726.408386,250.504395 
	C740.051575,231.596039 756.359253,214.761658 771.505676,197.025528 
	C802.162109,161.127655 836.957458,129.686569 874.356201,101.031570 
	C883.340820,94.147537 892.621887,87.684952 903.313232,82.819031 
	C899.310486,81.285034 896.180115,81.603661 890.877014,84.146133 
	C881.206055,88.782692 872.628052,95.148369 864.073853,101.505806 
	C840.237366,119.221107 817.351318,138.142136 796.674805,159.446854 
	C761.361572,195.832993 727.794800,233.726578 700.828674,276.972015 
	C680.040588,310.309692 665.483765,346.376465 654.338989,383.857605 
	C644.990723,415.296661 635.482910,446.626282 623.472168,477.210510 
	C604.338745,525.931763 572.712952,563.122864 525.776978,586.942810 
	C518.198242,590.789001 510.662872,594.696350 502.814789,597.961548 
	C501.212128,598.628296 499.662537,599.990234 497.645935,598.902649 
	C497.787964,596.874207 499.513641,596.177612 500.782257,595.284485 
	C535.370483,570.934387 553.528442,536.085938 563.666199,496.289948 
	C570.649170,468.878174 573.957581,440.747162 579.047241,412.963745 
	C585.526306,377.595367 594.187805,342.745941 603.847168,308.157257 
	C614.752747,269.105621 630.199280,231.845627 653.655090,198.600006 
	C675.037964,168.292435 703.536133,145.472321 735.810303,127.583527 
	C766.612122,110.510826 798.915405,96.690773 832.812561,85.676987 
z"></path>
</svg>